<mxfile host="Electron" agent="Mozilla/5.0 (X11; Linux x86_64) AppleWebKit/537.36 (KHTML, like Gecko) draw.io/26.0.3 Chrome/130.0.6723.137 Electron/33.2.1 Safari/537.36" version="26.0.3">
  <diagram name="Page-1" id="QaaNRkdTFzj3QSEMWY4U">
    <mxGraphModel dx="265" dy="401" grid="1" gridSize="10" guides="1" tooltips="1" connect="1" arrows="1" fold="1" page="1" pageScale="1" pageWidth="827" pageHeight="1169" math="0" shadow="0">
      <root>
        <mxCell id="0" />
        <mxCell id="1" parent="0" />
        <mxCell id="c7CVHGiVmJgYd2n3JN1E-3" value="Transform" style="rounded=0;whiteSpace=wrap;html=1;fillColor=#dae8fc;strokeColor=#6c8ebf;verticalAlign=bottom;labelPosition=center;verticalLabelPosition=top;align=center;" parent="1" vertex="1">
          <mxGeometry x="246" y="80" width="90" height="40" as="geometry" />
        </mxCell>
        <mxCell id="c7CVHGiVmJgYd2n3JN1E-9" value="buffer" style="rounded=1;whiteSpace=wrap;html=1;verticalAlign=bottom;labelPosition=center;verticalLabelPosition=top;align=left;" parent="1" vertex="1">
          <mxGeometry x="80" y="89" width="100" height="30" as="geometry" />
        </mxCell>
        <mxCell id="c7CVHGiVmJgYd2n3JN1E-10" value="..." style="rounded=0;whiteSpace=wrap;html=1;" parent="1" vertex="1">
          <mxGeometry x="89" y="94" width="20" height="20" as="geometry" />
        </mxCell>
        <mxCell id="c7CVHGiVmJgYd2n3JN1E-11" value="c" style="rounded=0;whiteSpace=wrap;html=1;fillColor=#d5e8d4;strokeColor=#82b366;labelPosition=center;verticalLabelPosition=middle;align=center;verticalAlign=middle;" parent="1" vertex="1">
          <mxGeometry x="119" y="94" width="20" height="20" as="geometry" />
        </mxCell>
        <mxCell id="c7CVHGiVmJgYd2n3JN1E-12" value="" style="endArrow=classic;html=1;rounded=0;curved=1;fillColor=#fa6800;strokeColor=#C73500;flowAnimation=0;exitX=0.037;exitY=0.917;exitDx=0;exitDy=0;exitPerimeter=0;" parent="1" source="c7CVHGiVmJgYd2n3JN1E-3" edge="1">
          <mxGeometry width="50" height="50" relative="1" as="geometry">
            <mxPoint x="264" y="125" as="sourcePoint" />
            <mxPoint x="167" y="125" as="targetPoint" />
            <Array as="points">
              <mxPoint x="220" y="140" />
              <mxPoint x="184" y="143" />
            </Array>
          </mxGeometry>
        </mxCell>
        <mxCell id="EHSWluV3zBVnfu7xWAty-1" value="&lt;font style=&quot;font-size: 8px;&quot;&gt;adds new measurement&lt;/font&gt;" style="edgeLabel;html=1;align=center;verticalAlign=middle;resizable=0;points=[];" vertex="1" connectable="0" parent="c7CVHGiVmJgYd2n3JN1E-12">
          <mxGeometry x="-0.436" y="-3" relative="1" as="geometry">
            <mxPoint x="14" as="offset" />
          </mxGeometry>
        </mxCell>
        <mxCell id="c7CVHGiVmJgYd2n3JN1E-13" value="" style="endArrow=classic;html=1;rounded=0;" parent="1" edge="1">
          <mxGeometry width="50" height="50" relative="1" as="geometry">
            <mxPoint x="190" y="104" as="sourcePoint" />
            <mxPoint x="240" y="104" as="targetPoint" />
          </mxGeometry>
        </mxCell>
        <mxCell id="c7CVHGiVmJgYd2n3JN1E-15" value="passed to" style="edgeLabel;html=1;align=center;verticalAlign=middle;resizable=0;points=[];fontSize=8;" parent="c7CVHGiVmJgYd2n3JN1E-13" vertex="1" connectable="0">
          <mxGeometry x="0.12" y="-1" relative="1" as="geometry">
            <mxPoint x="-5" y="-9" as="offset" />
          </mxGeometry>
        </mxCell>
        <mxCell id="c7CVHGiVmJgYd2n3JN1E-22" value="prev" style="rounded=0;whiteSpace=wrap;html=1;fillColor=#1ba1e2;fontColor=#ffffff;strokeColor=#006EAF;fontSize=11;" parent="1" vertex="1">
          <mxGeometry x="261.5" y="89" width="59" height="14.75" as="geometry" />
        </mxCell>
        <mxCell id="c7CVHGiVmJgYd2n3JN1E-39" value="M&lt;sub&gt;1&lt;/sub&gt;" style="ellipse;whiteSpace=wrap;html=1;aspect=fixed;fontSize=8;strokeWidth=1;spacing=0;verticalAlign=middle;fillColor=#d5e8d4;strokeColor=#82b366;" parent="1" vertex="1">
          <mxGeometry x="132" y="107" width="15" height="15" as="geometry" />
        </mxCell>
        <mxCell id="2wMRoq1Xn-8bjh13jLkO-1" value="diff" style="rounded=0;whiteSpace=wrap;html=1;fillColor=light-dark(#f0dbb2, #9a5800);strokeColor=#BD7000;labelPosition=center;verticalLabelPosition=middle;align=center;verticalAlign=middle;fontColor=#000000;dashed=1;fillStyle=auto;" parent="1" vertex="1">
          <mxGeometry x="150" y="94" width="20" height="20" as="geometry" />
        </mxCell>
        <mxCell id="2wMRoq1Xn-8bjh13jLkO-2" value="M&lt;span style=&quot;font-size: 6.66667px;&quot;&gt;&lt;sub&gt;2&lt;/sub&gt;&lt;/span&gt;" style="ellipse;whiteSpace=wrap;html=1;aspect=fixed;fontSize=8;strokeWidth=1;spacing=0;verticalAlign=middle;fillColor=light-dark(#f0dbb2, #9a5800);strokeColor=#BD7000;fontColor=#000000;dashed=1;fillStyle=auto;" parent="1" vertex="1">
          <mxGeometry x="163" y="107" width="15" height="15" as="geometry" />
        </mxCell>
        <mxCell id="2wMRoq1Xn-8bjh13jLkO-4" value="diff" style="rounded=0;whiteSpace=wrap;html=1;fillColor=#f0a30a;strokeColor=#BD7000;labelPosition=center;verticalLabelPosition=middle;align=center;verticalAlign=middle;fontColor=#000000;shadow=1;" parent="1" vertex="1">
          <mxGeometry x="199" y="147" width="20" height="20" as="geometry" />
        </mxCell>
        <mxCell id="2wMRoq1Xn-8bjh13jLkO-5" value="M&lt;span style=&quot;font-size: 6.66667px;&quot;&gt;&lt;sub&gt;2&lt;/sub&gt;&lt;/span&gt;" style="ellipse;whiteSpace=wrap;html=1;aspect=fixed;fontSize=8;strokeWidth=1;spacing=0;verticalAlign=middle;fillColor=#f0a30a;strokeColor=#BD7000;fontColor=#000000;shadow=1;" parent="1" vertex="1">
          <mxGeometry x="212" y="160" width="15" height="15" as="geometry" />
        </mxCell>
      </root>
    </mxGraphModel>
  </diagram>
</mxfile>
